G75*
G70*
%OFA0B0*%
%FSLAX24Y24*%
%IPPOS*%
%LPD*%
%AMOC8*
5,1,8,0,0,1.08239X$1,22.5*
%
%ADD10C,0.0000*%
%ADD11C,0.0700*%
%ADD12C,0.0320*%
%ADD13OC8,0.0396*%
%ADD14C,0.0160*%
D10*
X001631Y002180D02*
X024150Y002180D01*
X024194Y002182D01*
X024237Y002187D01*
X024280Y002196D01*
X024322Y002209D01*
X024363Y002225D01*
X024402Y002244D01*
X024440Y002266D01*
X024476Y002292D01*
X024509Y002320D01*
X024540Y002351D01*
X024568Y002384D01*
X024594Y002420D01*
X024616Y002458D01*
X024635Y002497D01*
X024651Y002538D01*
X024664Y002580D01*
X024673Y002623D01*
X024678Y002666D01*
X024680Y002710D01*
X024680Y026150D01*
X024678Y026194D01*
X024673Y026237D01*
X024664Y026280D01*
X024651Y026322D01*
X024635Y026363D01*
X024616Y026402D01*
X024594Y026440D01*
X024568Y026476D01*
X024540Y026509D01*
X024509Y026540D01*
X024476Y026568D01*
X024440Y026594D01*
X024402Y026616D01*
X024363Y026635D01*
X024322Y026651D01*
X024280Y026664D01*
X024237Y026673D01*
X024194Y026678D01*
X024150Y026680D01*
X001710Y026680D01*
X001666Y026678D01*
X001623Y026673D01*
X001580Y026664D01*
X001538Y026651D01*
X001497Y026635D01*
X001458Y026616D01*
X001420Y026594D01*
X001384Y026568D01*
X001351Y026540D01*
X001320Y026509D01*
X001292Y026476D01*
X001266Y026440D01*
X001244Y026402D01*
X001225Y026363D01*
X001209Y026322D01*
X001196Y026280D01*
X001187Y026237D01*
X001182Y026194D01*
X001180Y026150D01*
X001180Y002631D01*
X001182Y002589D01*
X001188Y002548D01*
X001197Y002508D01*
X001210Y002468D01*
X001227Y002430D01*
X001248Y002394D01*
X001271Y002359D01*
X001298Y002327D01*
X001327Y002298D01*
X001359Y002271D01*
X001394Y002248D01*
X001430Y002227D01*
X001468Y002210D01*
X001508Y002197D01*
X001548Y002188D01*
X001589Y002182D01*
X001631Y002180D01*
X001473Y003180D02*
X001475Y003233D01*
X001481Y003285D01*
X001491Y003337D01*
X001504Y003388D01*
X001522Y003438D01*
X001543Y003487D01*
X001568Y003534D01*
X001596Y003578D01*
X001627Y003621D01*
X001662Y003661D01*
X001699Y003698D01*
X001739Y003733D01*
X001782Y003764D01*
X001827Y003792D01*
X001873Y003817D01*
X001922Y003838D01*
X001972Y003856D01*
X002023Y003869D01*
X002075Y003879D01*
X002127Y003885D01*
X002180Y003887D01*
X002233Y003885D01*
X002285Y003879D01*
X002337Y003869D01*
X002388Y003856D01*
X002438Y003838D01*
X002487Y003817D01*
X002534Y003792D01*
X002578Y003764D01*
X002621Y003733D01*
X002661Y003698D01*
X002698Y003661D01*
X002733Y003621D01*
X002764Y003578D01*
X002792Y003533D01*
X002817Y003487D01*
X002838Y003438D01*
X002856Y003388D01*
X002869Y003337D01*
X002879Y003285D01*
X002885Y003233D01*
X002887Y003180D01*
X002885Y003127D01*
X002879Y003075D01*
X002869Y003023D01*
X002856Y002972D01*
X002838Y002922D01*
X002817Y002873D01*
X002792Y002826D01*
X002764Y002782D01*
X002733Y002739D01*
X002698Y002699D01*
X002661Y002662D01*
X002621Y002627D01*
X002578Y002596D01*
X002533Y002568D01*
X002487Y002543D01*
X002438Y002522D01*
X002388Y002504D01*
X002337Y002491D01*
X002285Y002481D01*
X002233Y002475D01*
X002180Y002473D01*
X002127Y002475D01*
X002075Y002481D01*
X002023Y002491D01*
X001972Y002504D01*
X001922Y002522D01*
X001873Y002543D01*
X001826Y002568D01*
X001782Y002596D01*
X001739Y002627D01*
X001699Y002662D01*
X001662Y002699D01*
X001627Y002739D01*
X001596Y002782D01*
X001568Y002827D01*
X001543Y002873D01*
X001522Y002922D01*
X001504Y002972D01*
X001491Y003023D01*
X001481Y003075D01*
X001475Y003127D01*
X001473Y003180D01*
X001473Y025680D02*
X001475Y025733D01*
X001481Y025785D01*
X001491Y025837D01*
X001504Y025888D01*
X001522Y025938D01*
X001543Y025987D01*
X001568Y026034D01*
X001596Y026078D01*
X001627Y026121D01*
X001662Y026161D01*
X001699Y026198D01*
X001739Y026233D01*
X001782Y026264D01*
X001827Y026292D01*
X001873Y026317D01*
X001922Y026338D01*
X001972Y026356D01*
X002023Y026369D01*
X002075Y026379D01*
X002127Y026385D01*
X002180Y026387D01*
X002233Y026385D01*
X002285Y026379D01*
X002337Y026369D01*
X002388Y026356D01*
X002438Y026338D01*
X002487Y026317D01*
X002534Y026292D01*
X002578Y026264D01*
X002621Y026233D01*
X002661Y026198D01*
X002698Y026161D01*
X002733Y026121D01*
X002764Y026078D01*
X002792Y026033D01*
X002817Y025987D01*
X002838Y025938D01*
X002856Y025888D01*
X002869Y025837D01*
X002879Y025785D01*
X002885Y025733D01*
X002887Y025680D01*
X002885Y025627D01*
X002879Y025575D01*
X002869Y025523D01*
X002856Y025472D01*
X002838Y025422D01*
X002817Y025373D01*
X002792Y025326D01*
X002764Y025282D01*
X002733Y025239D01*
X002698Y025199D01*
X002661Y025162D01*
X002621Y025127D01*
X002578Y025096D01*
X002533Y025068D01*
X002487Y025043D01*
X002438Y025022D01*
X002388Y025004D01*
X002337Y024991D01*
X002285Y024981D01*
X002233Y024975D01*
X002180Y024973D01*
X002127Y024975D01*
X002075Y024981D01*
X002023Y024991D01*
X001972Y025004D01*
X001922Y025022D01*
X001873Y025043D01*
X001826Y025068D01*
X001782Y025096D01*
X001739Y025127D01*
X001699Y025162D01*
X001662Y025199D01*
X001627Y025239D01*
X001596Y025282D01*
X001568Y025327D01*
X001543Y025373D01*
X001522Y025422D01*
X001504Y025472D01*
X001491Y025523D01*
X001481Y025575D01*
X001475Y025627D01*
X001473Y025680D01*
X022973Y025680D02*
X022975Y025733D01*
X022981Y025785D01*
X022991Y025837D01*
X023004Y025888D01*
X023022Y025938D01*
X023043Y025987D01*
X023068Y026034D01*
X023096Y026078D01*
X023127Y026121D01*
X023162Y026161D01*
X023199Y026198D01*
X023239Y026233D01*
X023282Y026264D01*
X023327Y026292D01*
X023373Y026317D01*
X023422Y026338D01*
X023472Y026356D01*
X023523Y026369D01*
X023575Y026379D01*
X023627Y026385D01*
X023680Y026387D01*
X023733Y026385D01*
X023785Y026379D01*
X023837Y026369D01*
X023888Y026356D01*
X023938Y026338D01*
X023987Y026317D01*
X024034Y026292D01*
X024078Y026264D01*
X024121Y026233D01*
X024161Y026198D01*
X024198Y026161D01*
X024233Y026121D01*
X024264Y026078D01*
X024292Y026033D01*
X024317Y025987D01*
X024338Y025938D01*
X024356Y025888D01*
X024369Y025837D01*
X024379Y025785D01*
X024385Y025733D01*
X024387Y025680D01*
X024385Y025627D01*
X024379Y025575D01*
X024369Y025523D01*
X024356Y025472D01*
X024338Y025422D01*
X024317Y025373D01*
X024292Y025326D01*
X024264Y025282D01*
X024233Y025239D01*
X024198Y025199D01*
X024161Y025162D01*
X024121Y025127D01*
X024078Y025096D01*
X024033Y025068D01*
X023987Y025043D01*
X023938Y025022D01*
X023888Y025004D01*
X023837Y024991D01*
X023785Y024981D01*
X023733Y024975D01*
X023680Y024973D01*
X023627Y024975D01*
X023575Y024981D01*
X023523Y024991D01*
X023472Y025004D01*
X023422Y025022D01*
X023373Y025043D01*
X023326Y025068D01*
X023282Y025096D01*
X023239Y025127D01*
X023199Y025162D01*
X023162Y025199D01*
X023127Y025239D01*
X023096Y025282D01*
X023068Y025327D01*
X023043Y025373D01*
X023022Y025422D01*
X023004Y025472D01*
X022991Y025523D01*
X022981Y025575D01*
X022975Y025627D01*
X022973Y025680D01*
X022973Y003180D02*
X022975Y003233D01*
X022981Y003285D01*
X022991Y003337D01*
X023004Y003388D01*
X023022Y003438D01*
X023043Y003487D01*
X023068Y003534D01*
X023096Y003578D01*
X023127Y003621D01*
X023162Y003661D01*
X023199Y003698D01*
X023239Y003733D01*
X023282Y003764D01*
X023327Y003792D01*
X023373Y003817D01*
X023422Y003838D01*
X023472Y003856D01*
X023523Y003869D01*
X023575Y003879D01*
X023627Y003885D01*
X023680Y003887D01*
X023733Y003885D01*
X023785Y003879D01*
X023837Y003869D01*
X023888Y003856D01*
X023938Y003838D01*
X023987Y003817D01*
X024034Y003792D01*
X024078Y003764D01*
X024121Y003733D01*
X024161Y003698D01*
X024198Y003661D01*
X024233Y003621D01*
X024264Y003578D01*
X024292Y003533D01*
X024317Y003487D01*
X024338Y003438D01*
X024356Y003388D01*
X024369Y003337D01*
X024379Y003285D01*
X024385Y003233D01*
X024387Y003180D01*
X024385Y003127D01*
X024379Y003075D01*
X024369Y003023D01*
X024356Y002972D01*
X024338Y002922D01*
X024317Y002873D01*
X024292Y002826D01*
X024264Y002782D01*
X024233Y002739D01*
X024198Y002699D01*
X024161Y002662D01*
X024121Y002627D01*
X024078Y002596D01*
X024033Y002568D01*
X023987Y002543D01*
X023938Y002522D01*
X023888Y002504D01*
X023837Y002491D01*
X023785Y002481D01*
X023733Y002475D01*
X023680Y002473D01*
X023627Y002475D01*
X023575Y002481D01*
X023523Y002491D01*
X023472Y002504D01*
X023422Y002522D01*
X023373Y002543D01*
X023326Y002568D01*
X023282Y002596D01*
X023239Y002627D01*
X023199Y002662D01*
X023162Y002699D01*
X023127Y002739D01*
X023096Y002782D01*
X023068Y002827D01*
X023043Y002873D01*
X023022Y002922D01*
X023004Y002972D01*
X022991Y003023D01*
X022981Y003075D01*
X022975Y003127D01*
X022973Y003180D01*
D11*
X020680Y017680D03*
X019680Y017680D03*
X018680Y017680D03*
X017680Y017680D03*
X016680Y017680D03*
X015680Y017680D03*
X014680Y017680D03*
X013680Y017680D03*
X012680Y017680D03*
X011680Y017680D03*
X010680Y017680D03*
X009680Y017680D03*
X008680Y017680D03*
X007680Y017680D03*
X006680Y017680D03*
X005680Y017680D03*
X004910Y013070D03*
X004910Y012070D03*
X004910Y011070D03*
X004910Y010070D03*
X004910Y009070D03*
X004910Y008070D03*
X004910Y007070D03*
X004910Y006070D03*
X009680Y025680D03*
X010680Y025680D03*
X011680Y025680D03*
X012680Y025680D03*
X013680Y025680D03*
X014680Y025680D03*
X015680Y025680D03*
X016680Y025680D03*
X017680Y025680D03*
X018680Y025680D03*
X019680Y025680D03*
X020680Y025680D03*
D12*
X020680Y011805D02*
X012680Y011805D01*
X011680Y011805D01*
X008305Y008430D01*
X007055Y008430D01*
X006680Y008055D01*
X006195Y012070D02*
X004910Y012070D01*
X006195Y012070D02*
X006680Y012555D01*
X006680Y017680D01*
D13*
X005805Y019305D03*
X006430Y020055D03*
X002680Y019305D03*
X006055Y014180D03*
X009055Y013305D03*
X009180Y010830D03*
X007180Y010805D03*
X006680Y008055D03*
X012430Y006055D03*
X013055Y009680D03*
X012680Y011805D03*
X013180Y013305D03*
X018055Y013305D03*
X018430Y011180D03*
X018430Y010305D03*
X020055Y010305D03*
X020680Y010930D03*
X020680Y011805D03*
X021680Y011180D03*
X021743Y009680D03*
X019930Y009305D03*
X021555Y006055D03*
X014680Y020430D03*
D14*
X014680Y025680D01*
X014180Y025232D02*
X014280Y025132D01*
X014280Y020763D01*
X014162Y020645D01*
X014162Y020215D01*
X014465Y019912D01*
X014895Y019912D01*
X015198Y020215D01*
X015198Y020645D01*
X015080Y020763D01*
X015080Y025132D01*
X015180Y025232D01*
X015300Y025112D01*
X015547Y025010D01*
X015813Y025010D01*
X016060Y025112D01*
X016180Y025232D01*
X016300Y025112D01*
X016547Y025010D01*
X016813Y025010D01*
X017060Y025112D01*
X017180Y025232D01*
X017300Y025112D01*
X017547Y025010D01*
X017813Y025010D01*
X018060Y025112D01*
X018180Y025232D01*
X018300Y025112D01*
X018547Y025010D01*
X018813Y025010D01*
X019060Y025112D01*
X019180Y025232D01*
X019300Y025112D01*
X019526Y025019D01*
X021905Y022639D01*
X021905Y018646D01*
X021519Y019032D01*
X021407Y019144D01*
X021260Y019205D01*
X013850Y019205D01*
X013703Y019144D01*
X013453Y018894D01*
X013341Y018782D01*
X013280Y018635D01*
X013280Y018228D01*
X013180Y018128D01*
X013060Y018248D01*
X012813Y018350D01*
X012547Y018350D01*
X012300Y018248D01*
X012180Y018128D01*
X012060Y018248D01*
X011813Y018350D01*
X011547Y018350D01*
X011300Y018248D01*
X011180Y018128D01*
X011060Y018248D01*
X010813Y018350D01*
X010547Y018350D01*
X010300Y018248D01*
X010180Y018128D01*
X010060Y018248D01*
X009813Y018350D01*
X009547Y018350D01*
X009300Y018248D01*
X009112Y018060D01*
X009093Y018013D01*
X009084Y018025D01*
X009025Y018084D01*
X008958Y018133D01*
X008883Y018171D01*
X008804Y018197D01*
X008722Y018210D01*
X008698Y018210D01*
X008698Y017698D01*
X008662Y017698D01*
X008662Y018210D01*
X008638Y018210D01*
X008556Y018197D01*
X008477Y018171D01*
X008402Y018133D01*
X008335Y018084D01*
X008276Y018025D01*
X008267Y018013D01*
X008248Y018060D01*
X008060Y018248D01*
X007813Y018350D01*
X007547Y018350D01*
X007300Y018248D01*
X007180Y018128D01*
X007060Y018248D01*
X006813Y018350D01*
X006547Y018350D01*
X006300Y018248D01*
X006180Y018128D01*
X006060Y018248D01*
X005813Y018350D01*
X005547Y018350D01*
X005536Y018346D01*
X005596Y018405D01*
X006260Y018405D01*
X006407Y018466D01*
X006519Y018578D01*
X006769Y018828D01*
X006830Y018975D01*
X006830Y019722D01*
X006948Y019840D01*
X006948Y020270D01*
X006645Y020573D01*
X006215Y020573D01*
X005912Y020270D01*
X005912Y019840D01*
X005929Y019823D01*
X005590Y019823D01*
X005472Y019705D01*
X003013Y019705D01*
X002895Y019823D01*
X002465Y019823D01*
X002162Y019520D01*
X002162Y019090D01*
X002465Y018787D01*
X002895Y018787D01*
X003013Y018905D01*
X004964Y018905D01*
X004828Y018769D01*
X004716Y018657D01*
X004655Y018510D01*
X004655Y016850D01*
X004716Y016703D01*
X005655Y015764D01*
X005655Y014513D01*
X005537Y014395D01*
X005537Y013965D01*
X005840Y013662D01*
X006200Y013662D01*
X006200Y012754D01*
X005996Y012550D01*
X005378Y012550D01*
X005290Y012638D01*
X005243Y012657D01*
X005255Y012666D01*
X005314Y012725D01*
X005363Y012792D01*
X005401Y012867D01*
X005427Y012946D01*
X005440Y013028D01*
X005440Y013052D01*
X004928Y013052D01*
X004928Y012740D01*
X004892Y012740D01*
X004892Y013052D01*
X004928Y013052D01*
X004928Y013088D01*
X004892Y013088D01*
X004892Y013052D01*
X004380Y013052D01*
X004380Y013028D01*
X004393Y012946D01*
X004419Y012867D01*
X004457Y012792D01*
X004506Y012725D01*
X004565Y012666D01*
X004577Y012657D01*
X004530Y012638D01*
X004342Y012450D01*
X004240Y012203D01*
X004240Y011937D01*
X004342Y011690D01*
X001660Y011690D01*
X001660Y011532D02*
X004424Y011532D01*
X004462Y011570D02*
X004342Y011450D01*
X004240Y011203D01*
X004240Y010937D01*
X004342Y010690D01*
X004462Y010570D01*
X004342Y010450D01*
X004240Y010203D01*
X004240Y009937D01*
X004342Y009690D01*
X004462Y009570D01*
X004342Y009450D01*
X004240Y009203D01*
X004240Y008937D01*
X004342Y008690D01*
X004462Y008570D01*
X004342Y008450D01*
X004240Y008203D01*
X001660Y008203D01*
X001660Y008045D02*
X004240Y008045D01*
X004240Y007937D02*
X004342Y007690D01*
X004462Y007570D01*
X004342Y007450D01*
X004240Y007203D01*
X004240Y006937D01*
X004342Y006690D01*
X004462Y006570D01*
X004342Y006450D01*
X004240Y006203D01*
X004240Y005937D01*
X004342Y005690D01*
X004530Y005502D01*
X004777Y005400D01*
X005043Y005400D01*
X005290Y005502D01*
X005416Y005628D01*
X007466Y003578D01*
X007578Y003466D01*
X007725Y003405D01*
X021510Y003405D01*
X021657Y003466D01*
X021769Y003578D01*
X021769Y003578D01*
X023269Y005078D01*
X023330Y005225D01*
X023330Y023510D01*
X023269Y023657D01*
X023157Y023769D01*
X023157Y023769D01*
X021350Y025576D01*
X021350Y025813D01*
X021248Y026060D01*
X021108Y026200D01*
X022610Y026200D01*
X022574Y026138D01*
X022493Y025836D01*
X022493Y025524D01*
X022574Y025222D01*
X022730Y024951D01*
X022951Y024730D01*
X023222Y024574D01*
X023524Y024493D01*
X023836Y024493D01*
X024138Y024574D01*
X024200Y024610D01*
X024200Y004250D01*
X024138Y004286D01*
X023836Y004367D01*
X023524Y004367D01*
X023222Y004286D01*
X022951Y004130D01*
X022730Y003909D01*
X022574Y003638D01*
X022493Y003336D01*
X022493Y003024D01*
X022574Y002722D01*
X022610Y002660D01*
X003250Y002660D01*
X003286Y002722D01*
X003367Y003024D01*
X003367Y003336D01*
X003286Y003638D01*
X003130Y003909D01*
X002909Y004130D01*
X002638Y004286D01*
X002336Y004367D01*
X002024Y004367D01*
X001722Y004286D01*
X001660Y004250D01*
X001660Y024610D01*
X001722Y024574D01*
X002024Y024493D01*
X002336Y024493D01*
X002638Y024574D01*
X002909Y024730D01*
X003130Y024951D01*
X003286Y025222D01*
X003367Y025524D01*
X003367Y025836D01*
X003286Y026138D01*
X003250Y026200D01*
X009252Y026200D01*
X009112Y026060D01*
X009010Y025813D01*
X009010Y025547D01*
X009112Y025300D01*
X009300Y025112D01*
X009547Y025010D01*
X009813Y025010D01*
X010060Y025112D01*
X010180Y025232D01*
X010300Y025112D01*
X010547Y025010D01*
X010813Y025010D01*
X011060Y025112D01*
X011180Y025232D01*
X011300Y025112D01*
X011547Y025010D01*
X011813Y025010D01*
X012060Y025112D01*
X012180Y025232D01*
X012300Y025112D01*
X012547Y025010D01*
X012813Y025010D01*
X013060Y025112D01*
X013180Y025232D01*
X013300Y025112D01*
X013547Y025010D01*
X013813Y025010D01*
X014060Y025112D01*
X014180Y025232D01*
X014110Y025163D02*
X014250Y025163D01*
X014280Y025004D02*
X003160Y025004D01*
X003252Y025163D02*
X009250Y025163D01*
X009103Y025321D02*
X003313Y025321D01*
X003355Y025480D02*
X009038Y025480D01*
X009010Y025638D02*
X003367Y025638D01*
X003367Y025797D02*
X009010Y025797D01*
X009069Y025955D02*
X003335Y025955D01*
X003293Y026114D02*
X009166Y026114D01*
X010110Y025163D02*
X010250Y025163D01*
X011110Y025163D02*
X011250Y025163D01*
X012110Y025163D02*
X012250Y025163D01*
X013110Y025163D02*
X013250Y025163D01*
X014280Y024846D02*
X003024Y024846D01*
X002834Y024687D02*
X014280Y024687D01*
X014280Y024529D02*
X002469Y024529D01*
X001891Y024529D02*
X001660Y024529D01*
X001660Y024370D02*
X014280Y024370D01*
X014280Y024212D02*
X001660Y024212D01*
X001660Y024053D02*
X014280Y024053D01*
X014280Y023895D02*
X001660Y023895D01*
X001660Y023736D02*
X014280Y023736D01*
X014280Y023578D02*
X001660Y023578D01*
X001660Y023419D02*
X014280Y023419D01*
X014280Y023261D02*
X001660Y023261D01*
X001660Y023102D02*
X014280Y023102D01*
X014280Y022944D02*
X001660Y022944D01*
X001660Y022785D02*
X014280Y022785D01*
X014280Y022627D02*
X001660Y022627D01*
X001660Y022468D02*
X014280Y022468D01*
X014280Y022310D02*
X001660Y022310D01*
X001660Y022151D02*
X014280Y022151D01*
X014280Y021993D02*
X001660Y021993D01*
X001660Y021834D02*
X014280Y021834D01*
X014280Y021676D02*
X001660Y021676D01*
X001660Y021517D02*
X014280Y021517D01*
X014280Y021359D02*
X001660Y021359D01*
X001660Y021200D02*
X014280Y021200D01*
X014280Y021042D02*
X001660Y021042D01*
X001660Y020883D02*
X014280Y020883D01*
X014242Y020725D02*
X001660Y020725D01*
X001660Y020566D02*
X006208Y020566D01*
X006050Y020408D02*
X001660Y020408D01*
X001660Y020249D02*
X005912Y020249D01*
X005912Y020091D02*
X001660Y020091D01*
X001660Y019932D02*
X005912Y019932D01*
X005541Y019774D02*
X002944Y019774D01*
X002680Y019305D02*
X005805Y019305D01*
X005430Y018805D02*
X005055Y018430D01*
X005055Y016930D01*
X006055Y015930D01*
X006055Y014180D01*
X005752Y013751D02*
X001660Y013751D01*
X001660Y013909D02*
X005593Y013909D01*
X005537Y014068D02*
X001660Y014068D01*
X001660Y014226D02*
X005537Y014226D01*
X005537Y014385D02*
X001660Y014385D01*
X001660Y014543D02*
X005655Y014543D01*
X005655Y014702D02*
X001660Y014702D01*
X001660Y014860D02*
X005655Y014860D01*
X005655Y015019D02*
X001660Y015019D01*
X001660Y015177D02*
X005655Y015177D01*
X005655Y015336D02*
X001660Y015336D01*
X001660Y015494D02*
X005655Y015494D01*
X005655Y015653D02*
X001660Y015653D01*
X001660Y015811D02*
X005608Y015811D01*
X005450Y015970D02*
X001660Y015970D01*
X001660Y016128D02*
X005291Y016128D01*
X005133Y016287D02*
X001660Y016287D01*
X001660Y016445D02*
X004974Y016445D01*
X004816Y016604D02*
X001660Y016604D01*
X001660Y016762D02*
X004692Y016762D01*
X004655Y016921D02*
X001660Y016921D01*
X001660Y017079D02*
X004655Y017079D01*
X004655Y017238D02*
X001660Y017238D01*
X001660Y017396D02*
X004655Y017396D01*
X004655Y017555D02*
X001660Y017555D01*
X001660Y017713D02*
X004655Y017713D01*
X004655Y017872D02*
X001660Y017872D01*
X001660Y018030D02*
X004655Y018030D01*
X004655Y018189D02*
X001660Y018189D01*
X001660Y018347D02*
X004655Y018347D01*
X004655Y018506D02*
X001660Y018506D01*
X001660Y018664D02*
X004723Y018664D01*
X004882Y018823D02*
X002930Y018823D01*
X002430Y018823D02*
X001660Y018823D01*
X001660Y018981D02*
X002271Y018981D01*
X002162Y019140D02*
X001660Y019140D01*
X001660Y019298D02*
X002162Y019298D01*
X002162Y019457D02*
X001660Y019457D01*
X001660Y019615D02*
X002257Y019615D01*
X002416Y019774D02*
X001660Y019774D01*
X005430Y018805D02*
X006180Y018805D01*
X006430Y019055D01*
X006430Y020055D01*
X006810Y020408D02*
X014162Y020408D01*
X014162Y020566D02*
X006652Y020566D01*
X006948Y020249D02*
X014162Y020249D01*
X014287Y020091D02*
X006948Y020091D01*
X006948Y019932D02*
X014445Y019932D01*
X014915Y019932D02*
X021905Y019932D01*
X021905Y019774D02*
X006881Y019774D01*
X006830Y019615D02*
X021905Y019615D01*
X021905Y019457D02*
X006830Y019457D01*
X006830Y019298D02*
X021905Y019298D01*
X021905Y019140D02*
X021411Y019140D01*
X021570Y018981D02*
X021905Y018981D01*
X021905Y018823D02*
X021728Y018823D01*
X021887Y018664D02*
X021905Y018664D01*
X021680Y018305D02*
X021180Y018805D01*
X013930Y018805D01*
X013680Y018555D01*
X013680Y017680D01*
X014180Y017232D02*
X014300Y017112D01*
X014547Y017010D01*
X014813Y017010D01*
X015060Y017112D01*
X015180Y017232D01*
X015300Y017112D01*
X015547Y017010D01*
X015813Y017010D01*
X016060Y017112D01*
X016180Y017232D01*
X016300Y017112D01*
X016547Y017010D01*
X016813Y017010D01*
X017060Y017112D01*
X017180Y017232D01*
X017300Y017112D01*
X017547Y017010D01*
X017813Y017010D01*
X018060Y017112D01*
X018180Y017232D01*
X018300Y017112D01*
X018547Y017010D01*
X018813Y017010D01*
X019060Y017112D01*
X019180Y017232D01*
X019300Y017112D01*
X019547Y017010D01*
X019813Y017010D01*
X020060Y017112D01*
X020180Y017232D01*
X020300Y017112D01*
X020526Y017019D01*
X020780Y016764D01*
X020780Y012323D01*
X020465Y012323D01*
X020427Y012285D01*
X012933Y012285D01*
X012895Y012323D01*
X012465Y012323D01*
X012427Y012285D01*
X011585Y012285D01*
X011408Y012212D01*
X010205Y011009D01*
X010205Y017207D01*
X010300Y017112D01*
X010547Y017010D01*
X010813Y017010D01*
X011060Y017112D01*
X011180Y017232D01*
X011300Y017112D01*
X011547Y017010D01*
X011813Y017010D01*
X012060Y017112D01*
X012180Y017232D01*
X012300Y017112D01*
X012547Y017010D01*
X012813Y017010D01*
X013060Y017112D01*
X013180Y017232D01*
X013300Y017112D01*
X013547Y017010D01*
X013813Y017010D01*
X014060Y017112D01*
X014180Y017232D01*
X013980Y017079D02*
X014380Y017079D01*
X014980Y017079D02*
X015380Y017079D01*
X015980Y017079D02*
X016380Y017079D01*
X016980Y017079D02*
X017380Y017079D01*
X017980Y017079D02*
X018380Y017079D01*
X018980Y017079D02*
X019380Y017079D01*
X019980Y017079D02*
X020380Y017079D01*
X020624Y016921D02*
X010205Y016921D01*
X010205Y017079D02*
X010380Y017079D01*
X010205Y016762D02*
X020780Y016762D01*
X020780Y016604D02*
X010205Y016604D01*
X010205Y016445D02*
X020780Y016445D01*
X020780Y016287D02*
X010205Y016287D01*
X010205Y016128D02*
X020780Y016128D01*
X020780Y015970D02*
X010205Y015970D01*
X010205Y015811D02*
X020780Y015811D01*
X020780Y015653D02*
X010205Y015653D01*
X010205Y015494D02*
X020780Y015494D01*
X020780Y015336D02*
X010205Y015336D01*
X010205Y015177D02*
X020780Y015177D01*
X020780Y015019D02*
X010205Y015019D01*
X010205Y014860D02*
X020780Y014860D01*
X020780Y014702D02*
X010205Y014702D01*
X010205Y014543D02*
X020780Y014543D01*
X020780Y014385D02*
X010205Y014385D01*
X010205Y014226D02*
X020780Y014226D01*
X020780Y014068D02*
X010205Y014068D01*
X010205Y013909D02*
X020780Y013909D01*
X020780Y013751D02*
X010205Y013751D01*
X010205Y013592D02*
X020780Y013592D01*
X020780Y013434D02*
X010205Y013434D01*
X010205Y013275D02*
X020780Y013275D01*
X020780Y013117D02*
X010205Y013117D01*
X010205Y012958D02*
X020780Y012958D01*
X020780Y012800D02*
X010205Y012800D01*
X010205Y012641D02*
X020780Y012641D01*
X020780Y012483D02*
X010205Y012483D01*
X010205Y012324D02*
X020780Y012324D01*
X020305Y011305D02*
X018555Y011305D01*
X018430Y011180D01*
X017912Y011215D02*
X011768Y011215D01*
X011879Y011325D02*
X012427Y011325D01*
X012465Y011287D01*
X012895Y011287D01*
X012933Y011325D01*
X017912Y011325D01*
X017912Y010965D01*
X018135Y010743D01*
X017912Y010520D01*
X017912Y010090D01*
X018215Y009787D01*
X018645Y009787D01*
X018763Y009905D01*
X019722Y009905D01*
X019804Y009823D01*
X019715Y009823D01*
X019412Y009520D01*
X019412Y009090D01*
X019715Y008787D01*
X020145Y008787D01*
X020263Y008905D01*
X021010Y008905D01*
X021157Y008966D01*
X021269Y009078D01*
X021519Y009328D01*
X021580Y009475D01*
X021580Y010662D01*
X021895Y010662D01*
X021905Y010672D01*
X021905Y005721D01*
X021014Y004830D01*
X008096Y004830D01*
X005940Y006986D01*
X005940Y007150D01*
X005879Y007297D01*
X005767Y007409D01*
X005620Y007470D01*
X005458Y007470D01*
X005358Y007570D01*
X005478Y007690D01*
X005580Y007937D01*
X005580Y008203D01*
X006162Y008203D01*
X006162Y008270D02*
X006162Y007840D01*
X006465Y007537D01*
X006895Y007537D01*
X007198Y007840D01*
X007198Y007894D01*
X007254Y007950D01*
X008400Y007950D01*
X008577Y008023D01*
X008712Y008158D01*
X011879Y011325D01*
X011610Y011056D02*
X017912Y011056D01*
X017980Y010898D02*
X011451Y010898D01*
X011293Y010739D02*
X018131Y010739D01*
X017973Y010581D02*
X011134Y010581D01*
X010976Y010422D02*
X017912Y010422D01*
X017912Y010264D02*
X010817Y010264D01*
X010659Y010105D02*
X017912Y010105D01*
X018056Y009947D02*
X010500Y009947D01*
X010342Y009788D02*
X018214Y009788D01*
X018430Y010305D02*
X020055Y010305D01*
X019680Y009788D02*
X018646Y009788D01*
X019412Y009471D02*
X010025Y009471D01*
X010183Y009630D02*
X019522Y009630D01*
X019412Y009313D02*
X009866Y009313D01*
X009708Y009154D02*
X019412Y009154D01*
X019507Y008996D02*
X009549Y008996D01*
X009391Y008837D02*
X019665Y008837D01*
X020195Y008837D02*
X021905Y008837D01*
X021905Y008679D02*
X009232Y008679D01*
X009074Y008520D02*
X021905Y008520D01*
X021905Y008362D02*
X008915Y008362D01*
X008757Y008203D02*
X021905Y008203D01*
X021905Y008045D02*
X008598Y008045D01*
X008195Y009070D02*
X009805Y010680D01*
X009805Y017555D01*
X009680Y017680D01*
X009405Y017069D02*
X009300Y017112D01*
X009112Y017300D01*
X009093Y017347D01*
X009084Y017335D01*
X009025Y017276D01*
X008958Y017227D01*
X008883Y017189D01*
X008804Y017163D01*
X008722Y017150D01*
X008698Y017150D01*
X008698Y017662D01*
X008662Y017662D01*
X008662Y017150D01*
X008638Y017150D01*
X008556Y017163D01*
X008477Y017189D01*
X008402Y017227D01*
X008335Y017276D01*
X008276Y017335D01*
X008267Y017347D01*
X008248Y017300D01*
X008060Y017112D01*
X007813Y017010D01*
X007547Y017010D01*
X007300Y017112D01*
X007180Y017232D01*
X007160Y017212D01*
X007160Y012460D01*
X007087Y012283D01*
X006952Y012148D01*
X006467Y011663D01*
X006290Y011590D01*
X005378Y011590D01*
X005358Y011570D01*
X005478Y011450D01*
X005580Y011203D01*
X005580Y010937D01*
X005478Y010690D01*
X005358Y010570D01*
X005478Y010450D01*
X005580Y010203D01*
X005580Y009937D01*
X005478Y009690D01*
X005358Y009570D01*
X005458Y009470D01*
X008029Y009470D01*
X008918Y010359D01*
X008872Y010405D01*
X007513Y010405D01*
X007395Y010287D01*
X006965Y010287D01*
X006662Y010590D01*
X006662Y011020D01*
X006965Y011323D01*
X007395Y011323D01*
X007513Y011205D01*
X008823Y011205D01*
X008965Y011348D01*
X009395Y011348D01*
X009405Y011337D01*
X009405Y017069D01*
X009380Y017079D02*
X007980Y017079D01*
X008185Y017238D02*
X008387Y017238D01*
X008662Y017238D02*
X008698Y017238D01*
X008698Y017396D02*
X008662Y017396D01*
X008662Y017555D02*
X008698Y017555D01*
X008698Y017713D02*
X008662Y017713D01*
X008662Y017872D02*
X008698Y017872D01*
X008698Y018030D02*
X008662Y018030D01*
X008662Y018189D02*
X008698Y018189D01*
X008830Y018189D02*
X009241Y018189D01*
X009100Y018030D02*
X009080Y018030D01*
X009540Y018347D02*
X007820Y018347D01*
X007540Y018347D02*
X006820Y018347D01*
X006540Y018347D02*
X005820Y018347D01*
X005540Y018347D02*
X005538Y018347D01*
X006119Y018189D02*
X006241Y018189D01*
X006446Y018506D02*
X013280Y018506D01*
X013292Y018664D02*
X006605Y018664D01*
X006763Y018823D02*
X013382Y018823D01*
X013540Y018981D02*
X006830Y018981D01*
X006830Y019140D02*
X013699Y019140D01*
X013280Y018347D02*
X012820Y018347D01*
X012540Y018347D02*
X011820Y018347D01*
X011540Y018347D02*
X010820Y018347D01*
X010540Y018347D02*
X009820Y018347D01*
X010119Y018189D02*
X010241Y018189D01*
X011119Y018189D02*
X011241Y018189D01*
X012119Y018189D02*
X012241Y018189D01*
X013119Y018189D02*
X013241Y018189D01*
X013380Y017079D02*
X012980Y017079D01*
X012380Y017079D02*
X011980Y017079D01*
X011380Y017079D02*
X010980Y017079D01*
X009405Y016921D02*
X007160Y016921D01*
X007160Y017079D02*
X007380Y017079D01*
X007160Y016762D02*
X009405Y016762D01*
X009405Y016604D02*
X007160Y016604D01*
X007160Y016445D02*
X009405Y016445D01*
X009405Y016287D02*
X007160Y016287D01*
X007160Y016128D02*
X009405Y016128D01*
X009405Y015970D02*
X007160Y015970D01*
X007160Y015811D02*
X009405Y015811D01*
X009405Y015653D02*
X007160Y015653D01*
X007160Y015494D02*
X009405Y015494D01*
X009405Y015336D02*
X007160Y015336D01*
X007160Y015177D02*
X009405Y015177D01*
X009405Y015019D02*
X007160Y015019D01*
X007160Y014860D02*
X009405Y014860D01*
X009405Y014702D02*
X007160Y014702D01*
X007160Y014543D02*
X009405Y014543D01*
X009405Y014385D02*
X007160Y014385D01*
X007160Y014226D02*
X009405Y014226D01*
X009405Y014068D02*
X007160Y014068D01*
X007160Y013909D02*
X009405Y013909D01*
X009405Y013751D02*
X007160Y013751D01*
X007160Y013592D02*
X009405Y013592D01*
X009405Y013434D02*
X007160Y013434D01*
X007160Y013275D02*
X009405Y013275D01*
X009405Y013117D02*
X007160Y013117D01*
X007160Y012958D02*
X009405Y012958D01*
X009405Y012800D02*
X007160Y012800D01*
X007160Y012641D02*
X009405Y012641D01*
X009405Y012483D02*
X007160Y012483D01*
X007104Y012324D02*
X009405Y012324D01*
X009405Y012166D02*
X006969Y012166D01*
X006811Y012007D02*
X009405Y012007D01*
X009405Y011849D02*
X006652Y011849D01*
X006494Y011690D02*
X009405Y011690D01*
X009405Y011532D02*
X005396Y011532D01*
X005510Y011373D02*
X009405Y011373D01*
X009180Y010830D02*
X009155Y010805D01*
X007180Y010805D01*
X006830Y010422D02*
X005489Y010422D01*
X005555Y010264D02*
X008823Y010264D01*
X008664Y010105D02*
X005580Y010105D01*
X005580Y009947D02*
X008506Y009947D01*
X008347Y009788D02*
X005518Y009788D01*
X005417Y009630D02*
X008189Y009630D01*
X008030Y009471D02*
X005457Y009471D01*
X005458Y008670D02*
X006616Y008670D01*
X006519Y008573D01*
X006465Y008573D01*
X006162Y008270D01*
X006254Y008362D02*
X005514Y008362D01*
X005478Y008450D02*
X005358Y008570D01*
X005458Y008670D01*
X005408Y008520D02*
X006412Y008520D01*
X006162Y008045D02*
X005580Y008045D01*
X005580Y008203D02*
X005478Y008450D01*
X005559Y007886D02*
X006162Y007886D01*
X006275Y007728D02*
X005493Y007728D01*
X005359Y007569D02*
X006433Y007569D01*
X006927Y007569D02*
X021905Y007569D01*
X021905Y007411D02*
X005763Y007411D01*
X005898Y007252D02*
X021905Y007252D01*
X021905Y007094D02*
X005940Y007094D01*
X005991Y006935D02*
X021905Y006935D01*
X021905Y006777D02*
X006149Y006777D01*
X006308Y006618D02*
X021905Y006618D01*
X021905Y006460D02*
X006466Y006460D01*
X006625Y006301D02*
X021905Y006301D01*
X021905Y006143D02*
X006783Y006143D01*
X006942Y005984D02*
X021905Y005984D01*
X021905Y005826D02*
X007100Y005826D01*
X007259Y005667D02*
X021851Y005667D01*
X021693Y005509D02*
X007417Y005509D01*
X007576Y005350D02*
X021534Y005350D01*
X021376Y005192D02*
X007734Y005192D01*
X007893Y005033D02*
X021217Y005033D01*
X021059Y004875D02*
X008051Y004875D01*
X007930Y004430D02*
X021180Y004430D01*
X022305Y005555D01*
X022305Y022805D01*
X019680Y025430D01*
X019680Y025680D01*
X019250Y025163D02*
X019110Y025163D01*
X019540Y025004D02*
X015080Y025004D01*
X015080Y024846D02*
X019699Y024846D01*
X019857Y024687D02*
X015080Y024687D01*
X015080Y024529D02*
X020016Y024529D01*
X020174Y024370D02*
X015080Y024370D01*
X015080Y024212D02*
X020333Y024212D01*
X020491Y024053D02*
X015080Y024053D01*
X015080Y023895D02*
X020650Y023895D01*
X020808Y023736D02*
X015080Y023736D01*
X015080Y023578D02*
X020967Y023578D01*
X021125Y023419D02*
X015080Y023419D01*
X015080Y023261D02*
X021284Y023261D01*
X021442Y023102D02*
X015080Y023102D01*
X015080Y022944D02*
X021601Y022944D01*
X021759Y022785D02*
X015080Y022785D01*
X015080Y022627D02*
X021905Y022627D01*
X021905Y022468D02*
X015080Y022468D01*
X015080Y022310D02*
X021905Y022310D01*
X021905Y022151D02*
X015080Y022151D01*
X015080Y021993D02*
X021905Y021993D01*
X021905Y021834D02*
X015080Y021834D01*
X015080Y021676D02*
X021905Y021676D01*
X021905Y021517D02*
X015080Y021517D01*
X015080Y021359D02*
X021905Y021359D01*
X021905Y021200D02*
X015080Y021200D01*
X015080Y021042D02*
X021905Y021042D01*
X021905Y020883D02*
X015080Y020883D01*
X015118Y020725D02*
X021905Y020725D01*
X021905Y020566D02*
X015198Y020566D01*
X015198Y020408D02*
X021905Y020408D01*
X021905Y020249D02*
X015198Y020249D01*
X015073Y020091D02*
X021905Y020091D01*
X023330Y020091D02*
X024200Y020091D01*
X024200Y020249D02*
X023330Y020249D01*
X023330Y020408D02*
X024200Y020408D01*
X024200Y020566D02*
X023330Y020566D01*
X023330Y020725D02*
X024200Y020725D01*
X024200Y020883D02*
X023330Y020883D01*
X023330Y021042D02*
X024200Y021042D01*
X024200Y021200D02*
X023330Y021200D01*
X023330Y021359D02*
X024200Y021359D01*
X024200Y021517D02*
X023330Y021517D01*
X023330Y021676D02*
X024200Y021676D01*
X024200Y021834D02*
X023330Y021834D01*
X023330Y021993D02*
X024200Y021993D01*
X024200Y022151D02*
X023330Y022151D01*
X023330Y022310D02*
X024200Y022310D01*
X024200Y022468D02*
X023330Y022468D01*
X023330Y022627D02*
X024200Y022627D01*
X024200Y022785D02*
X023330Y022785D01*
X023330Y022944D02*
X024200Y022944D01*
X024200Y023102D02*
X023330Y023102D01*
X023330Y023261D02*
X024200Y023261D01*
X024200Y023419D02*
X023330Y023419D01*
X023302Y023578D02*
X024200Y023578D01*
X024200Y023736D02*
X023190Y023736D01*
X023031Y023895D02*
X024200Y023895D01*
X024200Y024053D02*
X022873Y024053D01*
X022714Y024212D02*
X024200Y024212D01*
X024200Y024370D02*
X022556Y024370D01*
X022397Y024529D02*
X023391Y024529D01*
X023026Y024687D02*
X022239Y024687D01*
X022080Y024846D02*
X022836Y024846D01*
X022700Y025004D02*
X021922Y025004D01*
X021763Y025163D02*
X022608Y025163D01*
X022547Y025321D02*
X021605Y025321D01*
X021446Y025480D02*
X022505Y025480D01*
X022493Y025638D02*
X021350Y025638D01*
X021350Y025797D02*
X022493Y025797D01*
X022525Y025955D02*
X021291Y025955D01*
X021194Y026114D02*
X022567Y026114D01*
X023969Y024529D02*
X024200Y024529D01*
X022930Y023430D02*
X022930Y005305D01*
X021430Y003805D01*
X007805Y003805D01*
X005540Y006070D01*
X004910Y006070D01*
X004286Y005826D02*
X001660Y005826D01*
X001660Y005984D02*
X004240Y005984D01*
X004240Y006143D02*
X001660Y006143D01*
X001660Y006301D02*
X004280Y006301D01*
X004352Y006460D02*
X001660Y006460D01*
X001660Y006618D02*
X004414Y006618D01*
X004306Y006777D02*
X001660Y006777D01*
X001660Y006935D02*
X004241Y006935D01*
X004240Y007094D02*
X001660Y007094D01*
X001660Y007252D02*
X004260Y007252D01*
X004326Y007411D02*
X001660Y007411D01*
X001660Y007569D02*
X004461Y007569D01*
X004327Y007728D02*
X001660Y007728D01*
X001660Y007886D02*
X004261Y007886D01*
X004240Y007937D02*
X004240Y008203D01*
X004306Y008362D02*
X001660Y008362D01*
X001660Y008520D02*
X004412Y008520D01*
X004354Y008679D02*
X001660Y008679D01*
X001660Y008837D02*
X004281Y008837D01*
X004240Y008996D02*
X001660Y008996D01*
X001660Y009154D02*
X004240Y009154D01*
X004285Y009313D02*
X001660Y009313D01*
X001660Y009471D02*
X004363Y009471D01*
X004403Y009630D02*
X001660Y009630D01*
X001660Y009788D02*
X004302Y009788D01*
X004240Y009947D02*
X001660Y009947D01*
X001660Y010105D02*
X004240Y010105D01*
X004265Y010264D02*
X001660Y010264D01*
X001660Y010422D02*
X004331Y010422D01*
X004452Y010581D02*
X001660Y010581D01*
X001660Y010739D02*
X004322Y010739D01*
X004256Y010898D02*
X001660Y010898D01*
X001660Y011056D02*
X004240Y011056D01*
X004245Y011215D02*
X001660Y011215D01*
X001660Y011373D02*
X004310Y011373D01*
X004462Y011570D02*
X004342Y011690D01*
X004277Y011849D02*
X001660Y011849D01*
X001660Y012007D02*
X004240Y012007D01*
X004240Y012166D02*
X001660Y012166D01*
X001660Y012324D02*
X004290Y012324D01*
X004375Y012483D02*
X001660Y012483D01*
X001660Y012641D02*
X004538Y012641D01*
X004453Y012800D02*
X001660Y012800D01*
X001660Y012958D02*
X004391Y012958D01*
X004380Y013088D02*
X004892Y013088D01*
X004892Y013600D01*
X004868Y013600D01*
X004786Y013587D01*
X004707Y013561D01*
X004632Y013523D01*
X004565Y013474D01*
X004506Y013415D01*
X004457Y013348D01*
X004419Y013273D01*
X004393Y013194D01*
X004380Y013112D01*
X004380Y013088D01*
X004381Y013117D02*
X001660Y013117D01*
X001660Y013275D02*
X004420Y013275D01*
X004524Y013434D02*
X001660Y013434D01*
X001660Y013592D02*
X004818Y013592D01*
X004892Y013592D02*
X004928Y013592D01*
X004928Y013600D02*
X004928Y013088D01*
X005440Y013088D01*
X005440Y013112D01*
X005427Y013194D01*
X005401Y013273D01*
X005363Y013348D01*
X005314Y013415D01*
X005255Y013474D01*
X005188Y013523D01*
X005113Y013561D01*
X005034Y013587D01*
X004952Y013600D01*
X004928Y013600D01*
X005002Y013592D02*
X006200Y013592D01*
X006200Y013434D02*
X005296Y013434D01*
X005400Y013275D02*
X006200Y013275D01*
X006200Y013117D02*
X005439Y013117D01*
X005429Y012958D02*
X006200Y012958D01*
X006200Y012800D02*
X005367Y012800D01*
X005282Y012641D02*
X006087Y012641D01*
X004928Y012800D02*
X004892Y012800D01*
X004892Y012958D02*
X004928Y012958D01*
X004928Y013117D02*
X004892Y013117D01*
X004892Y013275D02*
X004928Y013275D01*
X004928Y013434D02*
X004892Y013434D01*
X005575Y011215D02*
X006857Y011215D01*
X006698Y011056D02*
X005580Y011056D01*
X005564Y010898D02*
X006662Y010898D01*
X006662Y010739D02*
X005498Y010739D01*
X005368Y010581D02*
X006672Y010581D01*
X007503Y011215D02*
X008832Y011215D01*
X010205Y011215D02*
X010411Y011215D01*
X010569Y011373D02*
X010205Y011373D01*
X010205Y011532D02*
X010728Y011532D01*
X010886Y011690D02*
X010205Y011690D01*
X010205Y011849D02*
X011045Y011849D01*
X011203Y012007D02*
X010205Y012007D01*
X010205Y012166D02*
X011362Y012166D01*
X010252Y011056D02*
X010205Y011056D01*
X008195Y009070D02*
X004910Y009070D01*
X004910Y007070D02*
X005540Y007070D01*
X005540Y006820D01*
X007930Y004430D01*
X007279Y003765D02*
X003213Y003765D01*
X003295Y003607D02*
X007438Y003607D01*
X007622Y003448D02*
X003337Y003448D01*
X003367Y003290D02*
X022493Y003290D01*
X022493Y003131D02*
X003367Y003131D01*
X003353Y002973D02*
X022507Y002973D01*
X022549Y002814D02*
X003311Y002814D01*
X003115Y003924D02*
X007121Y003924D01*
X006962Y004082D02*
X002957Y004082D01*
X002717Y004241D02*
X006804Y004241D01*
X006645Y004399D02*
X001660Y004399D01*
X001660Y004558D02*
X006487Y004558D01*
X006328Y004716D02*
X001660Y004716D01*
X001660Y004875D02*
X006170Y004875D01*
X006011Y005033D02*
X001660Y005033D01*
X001660Y005192D02*
X005853Y005192D01*
X005694Y005350D02*
X001660Y005350D01*
X001660Y005509D02*
X004524Y005509D01*
X004365Y005667D02*
X001660Y005667D01*
X005296Y005509D02*
X005536Y005509D01*
X007085Y007728D02*
X021905Y007728D01*
X021905Y007886D02*
X007198Y007886D01*
X008973Y017238D02*
X009175Y017238D01*
X008280Y018030D02*
X008260Y018030D01*
X008119Y018189D02*
X008530Y018189D01*
X007241Y018189D02*
X007119Y018189D01*
X015110Y025163D02*
X015250Y025163D01*
X016110Y025163D02*
X016250Y025163D01*
X017110Y025163D02*
X017250Y025163D01*
X018110Y025163D02*
X018250Y025163D01*
X020680Y025680D02*
X022930Y023430D01*
X023330Y019932D02*
X024200Y019932D01*
X024200Y019774D02*
X023330Y019774D01*
X023330Y019615D02*
X024200Y019615D01*
X024200Y019457D02*
X023330Y019457D01*
X023330Y019298D02*
X024200Y019298D01*
X024200Y019140D02*
X023330Y019140D01*
X023330Y018981D02*
X024200Y018981D01*
X024200Y018823D02*
X023330Y018823D01*
X023330Y018664D02*
X024200Y018664D01*
X024200Y018506D02*
X023330Y018506D01*
X023330Y018347D02*
X024200Y018347D01*
X024200Y018189D02*
X023330Y018189D01*
X023330Y018030D02*
X024200Y018030D01*
X024200Y017872D02*
X023330Y017872D01*
X023330Y017713D02*
X024200Y017713D01*
X024200Y017555D02*
X023330Y017555D01*
X023330Y017396D02*
X024200Y017396D01*
X024200Y017238D02*
X023330Y017238D01*
X023330Y017079D02*
X024200Y017079D01*
X024200Y016921D02*
X023330Y016921D01*
X023330Y016762D02*
X024200Y016762D01*
X024200Y016604D02*
X023330Y016604D01*
X023330Y016445D02*
X024200Y016445D01*
X024200Y016287D02*
X023330Y016287D01*
X023330Y016128D02*
X024200Y016128D01*
X024200Y015970D02*
X023330Y015970D01*
X023330Y015811D02*
X024200Y015811D01*
X024200Y015653D02*
X023330Y015653D01*
X023330Y015494D02*
X024200Y015494D01*
X024200Y015336D02*
X023330Y015336D01*
X023330Y015177D02*
X024200Y015177D01*
X024200Y015019D02*
X023330Y015019D01*
X023330Y014860D02*
X024200Y014860D01*
X024200Y014702D02*
X023330Y014702D01*
X023330Y014543D02*
X024200Y014543D01*
X024200Y014385D02*
X023330Y014385D01*
X023330Y014226D02*
X024200Y014226D01*
X024200Y014068D02*
X023330Y014068D01*
X023330Y013909D02*
X024200Y013909D01*
X024200Y013751D02*
X023330Y013751D01*
X023330Y013592D02*
X024200Y013592D01*
X024200Y013434D02*
X023330Y013434D01*
X023330Y013275D02*
X024200Y013275D01*
X024200Y013117D02*
X023330Y013117D01*
X023330Y012958D02*
X024200Y012958D01*
X024200Y012800D02*
X023330Y012800D01*
X023330Y012641D02*
X024200Y012641D01*
X024200Y012483D02*
X023330Y012483D01*
X023330Y012324D02*
X024200Y012324D01*
X024200Y012166D02*
X023330Y012166D01*
X023330Y012007D02*
X024200Y012007D01*
X024200Y011849D02*
X023330Y011849D01*
X023330Y011690D02*
X024200Y011690D01*
X024200Y011532D02*
X023330Y011532D01*
X023330Y011373D02*
X024200Y011373D01*
X024200Y011215D02*
X023330Y011215D01*
X023330Y011056D02*
X024200Y011056D01*
X024200Y010898D02*
X023330Y010898D01*
X023330Y010739D02*
X024200Y010739D01*
X024200Y010581D02*
X023330Y010581D01*
X023330Y010422D02*
X024200Y010422D01*
X024200Y010264D02*
X023330Y010264D01*
X023330Y010105D02*
X024200Y010105D01*
X024200Y009947D02*
X023330Y009947D01*
X023330Y009788D02*
X024200Y009788D01*
X024200Y009630D02*
X023330Y009630D01*
X023330Y009471D02*
X024200Y009471D01*
X024200Y009313D02*
X023330Y009313D01*
X023330Y009154D02*
X024200Y009154D01*
X024200Y008996D02*
X023330Y008996D01*
X023330Y008837D02*
X024200Y008837D01*
X024200Y008679D02*
X023330Y008679D01*
X023330Y008520D02*
X024200Y008520D01*
X024200Y008362D02*
X023330Y008362D01*
X023330Y008203D02*
X024200Y008203D01*
X024200Y008045D02*
X023330Y008045D01*
X023330Y007886D02*
X024200Y007886D01*
X024200Y007728D02*
X023330Y007728D01*
X023330Y007569D02*
X024200Y007569D01*
X024200Y007411D02*
X023330Y007411D01*
X023330Y007252D02*
X024200Y007252D01*
X024200Y007094D02*
X023330Y007094D01*
X023330Y006935D02*
X024200Y006935D01*
X024200Y006777D02*
X023330Y006777D01*
X023330Y006618D02*
X024200Y006618D01*
X024200Y006460D02*
X023330Y006460D01*
X023330Y006301D02*
X024200Y006301D01*
X024200Y006143D02*
X023330Y006143D01*
X023330Y005984D02*
X024200Y005984D01*
X024200Y005826D02*
X023330Y005826D01*
X023330Y005667D02*
X024200Y005667D01*
X024200Y005509D02*
X023330Y005509D01*
X023330Y005350D02*
X024200Y005350D01*
X024200Y005192D02*
X023316Y005192D01*
X023224Y005033D02*
X024200Y005033D01*
X024200Y004875D02*
X023065Y004875D01*
X022907Y004716D02*
X024200Y004716D01*
X024200Y004558D02*
X022748Y004558D01*
X022590Y004399D02*
X024200Y004399D01*
X023143Y004241D02*
X022431Y004241D01*
X022273Y004082D02*
X022903Y004082D01*
X022745Y003924D02*
X022114Y003924D01*
X021956Y003765D02*
X022647Y003765D01*
X022565Y003607D02*
X021797Y003607D01*
X021613Y003448D02*
X022523Y003448D01*
X021905Y008996D02*
X021186Y008996D01*
X021345Y009154D02*
X021905Y009154D01*
X021905Y009313D02*
X021503Y009313D01*
X021578Y009471D02*
X021905Y009471D01*
X021905Y009630D02*
X021580Y009630D01*
X021580Y009788D02*
X021905Y009788D01*
X021905Y009947D02*
X021580Y009947D01*
X021580Y010105D02*
X021905Y010105D01*
X021905Y010264D02*
X021580Y010264D01*
X021580Y010422D02*
X021905Y010422D01*
X021905Y010581D02*
X021580Y010581D01*
X021680Y011180D02*
X021680Y018305D01*
X020680Y017680D02*
X020680Y017430D01*
X021180Y016930D01*
X021180Y009555D01*
X020930Y009305D01*
X019930Y009305D01*
X020680Y010930D02*
X020305Y011305D01*
M02*
