%
M48
M72
T01C0.0236
T02C0.0394
T03C0.1414
%
T01
X6680Y8055
X7180Y10805
X9180Y10830
X9055Y13305
X6055Y14180
X5805Y19305
X6430Y20055
X2680Y19305
X12680Y11805
X13180Y13305
X13055Y9680
X12430Y6055
X18430Y10305
X18430Y11180
X20055Y10305
X20680Y10930
X20680Y11805
X21680Y11180
X21743Y9680
X19930Y9305
X21555Y6055
X18055Y13305
X14680Y20430
T02
X14680Y17680
X13680Y17680
X12680Y17680
X11680Y17680
X10680Y17680
X9680Y17680
X8680Y17680
X7680Y17680
X6680Y17680
X5680Y17680
X4910Y13070
X4910Y12070
X4910Y11070
X4910Y10070
X4910Y9070
X4910Y8070
X4910Y7070
X4910Y6070
X15680Y17680
X16680Y17680
X17680Y17680
X18680Y17680
X19680Y17680
X20680Y17680
X20680Y25680
X19680Y25680
X18680Y25680
X17680Y25680
X16680Y25680
X15680Y25680
X14680Y25680
X13680Y25680
X12680Y25680
X11680Y25680
X10680Y25680
X9680Y25680
T03
X2180Y3180
X2180Y25680
X23680Y25680
X23680Y3180
M30
