G75*
G70*
%OFA0B0*%
%FSLAX24Y24*%
%IPPOS*%
%LPD*%
%AMOC8*
5,1,8,0,0,1.08239X$1,22.5*
%
%ADD10C,0.0000*%
%ADD11C,0.0177*%
D10*
X001631Y002180D02*
X024150Y002180D01*
X024194Y002182D01*
X024237Y002187D01*
X024280Y002196D01*
X024322Y002209D01*
X024363Y002225D01*
X024402Y002244D01*
X024440Y002266D01*
X024476Y002292D01*
X024509Y002320D01*
X024540Y002351D01*
X024568Y002384D01*
X024594Y002420D01*
X024616Y002458D01*
X024635Y002497D01*
X024651Y002538D01*
X024664Y002580D01*
X024673Y002623D01*
X024678Y002666D01*
X024680Y002710D01*
X024680Y026150D01*
X024678Y026194D01*
X024673Y026237D01*
X024664Y026280D01*
X024651Y026322D01*
X024635Y026363D01*
X024616Y026402D01*
X024594Y026440D01*
X024568Y026476D01*
X024540Y026509D01*
X024509Y026540D01*
X024476Y026568D01*
X024440Y026594D01*
X024402Y026616D01*
X024363Y026635D01*
X024322Y026651D01*
X024280Y026664D01*
X024237Y026673D01*
X024194Y026678D01*
X024150Y026680D01*
X001710Y026680D01*
X001666Y026678D01*
X001623Y026673D01*
X001580Y026664D01*
X001538Y026651D01*
X001497Y026635D01*
X001458Y026616D01*
X001420Y026594D01*
X001384Y026568D01*
X001351Y026540D01*
X001320Y026509D01*
X001292Y026476D01*
X001266Y026440D01*
X001244Y026402D01*
X001225Y026363D01*
X001209Y026322D01*
X001196Y026280D01*
X001187Y026237D01*
X001182Y026194D01*
X001180Y026150D01*
X001180Y002631D01*
X001182Y002589D01*
X001188Y002548D01*
X001197Y002508D01*
X001210Y002468D01*
X001227Y002430D01*
X001248Y002394D01*
X001271Y002359D01*
X001298Y002327D01*
X001327Y002298D01*
X001359Y002271D01*
X001394Y002248D01*
X001430Y002227D01*
X001468Y002210D01*
X001508Y002197D01*
X001548Y002188D01*
X001589Y002182D01*
X001631Y002180D01*
X001473Y003180D02*
X001475Y003233D01*
X001481Y003285D01*
X001491Y003337D01*
X001504Y003388D01*
X001522Y003438D01*
X001543Y003487D01*
X001568Y003534D01*
X001596Y003578D01*
X001627Y003621D01*
X001662Y003661D01*
X001699Y003698D01*
X001739Y003733D01*
X001782Y003764D01*
X001827Y003792D01*
X001873Y003817D01*
X001922Y003838D01*
X001972Y003856D01*
X002023Y003869D01*
X002075Y003879D01*
X002127Y003885D01*
X002180Y003887D01*
X002233Y003885D01*
X002285Y003879D01*
X002337Y003869D01*
X002388Y003856D01*
X002438Y003838D01*
X002487Y003817D01*
X002534Y003792D01*
X002578Y003764D01*
X002621Y003733D01*
X002661Y003698D01*
X002698Y003661D01*
X002733Y003621D01*
X002764Y003578D01*
X002792Y003533D01*
X002817Y003487D01*
X002838Y003438D01*
X002856Y003388D01*
X002869Y003337D01*
X002879Y003285D01*
X002885Y003233D01*
X002887Y003180D01*
X002885Y003127D01*
X002879Y003075D01*
X002869Y003023D01*
X002856Y002972D01*
X002838Y002922D01*
X002817Y002873D01*
X002792Y002826D01*
X002764Y002782D01*
X002733Y002739D01*
X002698Y002699D01*
X002661Y002662D01*
X002621Y002627D01*
X002578Y002596D01*
X002533Y002568D01*
X002487Y002543D01*
X002438Y002522D01*
X002388Y002504D01*
X002337Y002491D01*
X002285Y002481D01*
X002233Y002475D01*
X002180Y002473D01*
X002127Y002475D01*
X002075Y002481D01*
X002023Y002491D01*
X001972Y002504D01*
X001922Y002522D01*
X001873Y002543D01*
X001826Y002568D01*
X001782Y002596D01*
X001739Y002627D01*
X001699Y002662D01*
X001662Y002699D01*
X001627Y002739D01*
X001596Y002782D01*
X001568Y002827D01*
X001543Y002873D01*
X001522Y002922D01*
X001504Y002972D01*
X001491Y003023D01*
X001481Y003075D01*
X001475Y003127D01*
X001473Y003180D01*
X001473Y025680D02*
X001475Y025733D01*
X001481Y025785D01*
X001491Y025837D01*
X001504Y025888D01*
X001522Y025938D01*
X001543Y025987D01*
X001568Y026034D01*
X001596Y026078D01*
X001627Y026121D01*
X001662Y026161D01*
X001699Y026198D01*
X001739Y026233D01*
X001782Y026264D01*
X001827Y026292D01*
X001873Y026317D01*
X001922Y026338D01*
X001972Y026356D01*
X002023Y026369D01*
X002075Y026379D01*
X002127Y026385D01*
X002180Y026387D01*
X002233Y026385D01*
X002285Y026379D01*
X002337Y026369D01*
X002388Y026356D01*
X002438Y026338D01*
X002487Y026317D01*
X002534Y026292D01*
X002578Y026264D01*
X002621Y026233D01*
X002661Y026198D01*
X002698Y026161D01*
X002733Y026121D01*
X002764Y026078D01*
X002792Y026033D01*
X002817Y025987D01*
X002838Y025938D01*
X002856Y025888D01*
X002869Y025837D01*
X002879Y025785D01*
X002885Y025733D01*
X002887Y025680D01*
X002885Y025627D01*
X002879Y025575D01*
X002869Y025523D01*
X002856Y025472D01*
X002838Y025422D01*
X002817Y025373D01*
X002792Y025326D01*
X002764Y025282D01*
X002733Y025239D01*
X002698Y025199D01*
X002661Y025162D01*
X002621Y025127D01*
X002578Y025096D01*
X002533Y025068D01*
X002487Y025043D01*
X002438Y025022D01*
X002388Y025004D01*
X002337Y024991D01*
X002285Y024981D01*
X002233Y024975D01*
X002180Y024973D01*
X002127Y024975D01*
X002075Y024981D01*
X002023Y024991D01*
X001972Y025004D01*
X001922Y025022D01*
X001873Y025043D01*
X001826Y025068D01*
X001782Y025096D01*
X001739Y025127D01*
X001699Y025162D01*
X001662Y025199D01*
X001627Y025239D01*
X001596Y025282D01*
X001568Y025327D01*
X001543Y025373D01*
X001522Y025422D01*
X001504Y025472D01*
X001491Y025523D01*
X001481Y025575D01*
X001475Y025627D01*
X001473Y025680D01*
X022973Y025680D02*
X022975Y025733D01*
X022981Y025785D01*
X022991Y025837D01*
X023004Y025888D01*
X023022Y025938D01*
X023043Y025987D01*
X023068Y026034D01*
X023096Y026078D01*
X023127Y026121D01*
X023162Y026161D01*
X023199Y026198D01*
X023239Y026233D01*
X023282Y026264D01*
X023327Y026292D01*
X023373Y026317D01*
X023422Y026338D01*
X023472Y026356D01*
X023523Y026369D01*
X023575Y026379D01*
X023627Y026385D01*
X023680Y026387D01*
X023733Y026385D01*
X023785Y026379D01*
X023837Y026369D01*
X023888Y026356D01*
X023938Y026338D01*
X023987Y026317D01*
X024034Y026292D01*
X024078Y026264D01*
X024121Y026233D01*
X024161Y026198D01*
X024198Y026161D01*
X024233Y026121D01*
X024264Y026078D01*
X024292Y026033D01*
X024317Y025987D01*
X024338Y025938D01*
X024356Y025888D01*
X024369Y025837D01*
X024379Y025785D01*
X024385Y025733D01*
X024387Y025680D01*
X024385Y025627D01*
X024379Y025575D01*
X024369Y025523D01*
X024356Y025472D01*
X024338Y025422D01*
X024317Y025373D01*
X024292Y025326D01*
X024264Y025282D01*
X024233Y025239D01*
X024198Y025199D01*
X024161Y025162D01*
X024121Y025127D01*
X024078Y025096D01*
X024033Y025068D01*
X023987Y025043D01*
X023938Y025022D01*
X023888Y025004D01*
X023837Y024991D01*
X023785Y024981D01*
X023733Y024975D01*
X023680Y024973D01*
X023627Y024975D01*
X023575Y024981D01*
X023523Y024991D01*
X023472Y025004D01*
X023422Y025022D01*
X023373Y025043D01*
X023326Y025068D01*
X023282Y025096D01*
X023239Y025127D01*
X023199Y025162D01*
X023162Y025199D01*
X023127Y025239D01*
X023096Y025282D01*
X023068Y025327D01*
X023043Y025373D01*
X023022Y025422D01*
X023004Y025472D01*
X022991Y025523D01*
X022981Y025575D01*
X022975Y025627D01*
X022973Y025680D01*
X022973Y003180D02*
X022975Y003233D01*
X022981Y003285D01*
X022991Y003337D01*
X023004Y003388D01*
X023022Y003438D01*
X023043Y003487D01*
X023068Y003534D01*
X023096Y003578D01*
X023127Y003621D01*
X023162Y003661D01*
X023199Y003698D01*
X023239Y003733D01*
X023282Y003764D01*
X023327Y003792D01*
X023373Y003817D01*
X023422Y003838D01*
X023472Y003856D01*
X023523Y003869D01*
X023575Y003879D01*
X023627Y003885D01*
X023680Y003887D01*
X023733Y003885D01*
X023785Y003879D01*
X023837Y003869D01*
X023888Y003856D01*
X023938Y003838D01*
X023987Y003817D01*
X024034Y003792D01*
X024078Y003764D01*
X024121Y003733D01*
X024161Y003698D01*
X024198Y003661D01*
X024233Y003621D01*
X024264Y003578D01*
X024292Y003533D01*
X024317Y003487D01*
X024338Y003438D01*
X024356Y003388D01*
X024369Y003337D01*
X024379Y003285D01*
X024385Y003233D01*
X024387Y003180D01*
X024385Y003127D01*
X024379Y003075D01*
X024369Y003023D01*
X024356Y002972D01*
X024338Y002922D01*
X024317Y002873D01*
X024292Y002826D01*
X024264Y002782D01*
X024233Y002739D01*
X024198Y002699D01*
X024161Y002662D01*
X024121Y002627D01*
X024078Y002596D01*
X024033Y002568D01*
X023987Y002543D01*
X023938Y002522D01*
X023888Y002504D01*
X023837Y002491D01*
X023785Y002481D01*
X023733Y002475D01*
X023680Y002473D01*
X023627Y002475D01*
X023575Y002481D01*
X023523Y002491D01*
X023472Y002504D01*
X023422Y002522D01*
X023373Y002543D01*
X023326Y002568D01*
X023282Y002596D01*
X023239Y002627D01*
X023199Y002662D01*
X023162Y002699D01*
X023127Y002739D01*
X023096Y002782D01*
X023068Y002827D01*
X023043Y002873D01*
X023022Y002922D01*
X023004Y002972D01*
X022991Y003023D01*
X022981Y003075D01*
X022975Y003127D01*
X022973Y003180D01*
D11*
X023217Y006048D02*
X022643Y006048D01*
X022643Y006226D01*
X023217Y006226D01*
X023217Y006048D01*
X023217Y006224D02*
X022643Y006224D01*
X022643Y006548D02*
X023217Y006548D01*
X022643Y006548D02*
X022643Y006726D01*
X023217Y006726D01*
X023217Y006548D01*
X023217Y006724D02*
X022643Y006724D01*
X022643Y007048D02*
X023217Y007048D01*
X022643Y007048D02*
X022643Y007226D01*
X023217Y007226D01*
X023217Y007048D01*
X023217Y007224D02*
X022643Y007224D01*
X022643Y009241D02*
X023217Y009241D01*
X022643Y009241D02*
X022643Y009419D01*
X023217Y009419D01*
X023217Y009241D01*
X023217Y009417D02*
X022643Y009417D01*
X022643Y009741D02*
X023217Y009741D01*
X022643Y009741D02*
X022643Y009919D01*
X023217Y009919D01*
X023217Y009741D01*
X023217Y009917D02*
X022643Y009917D01*
X022643Y010241D02*
X023217Y010241D01*
X022643Y010241D02*
X022643Y010419D01*
X023217Y010419D01*
X023217Y010241D01*
X023217Y010417D02*
X022643Y010417D01*
X022643Y010741D02*
X023217Y010741D01*
X022643Y010741D02*
X022643Y010919D01*
X023217Y010919D01*
X023217Y010741D01*
X023217Y010917D02*
X022643Y010917D01*
X022643Y011241D02*
X023217Y011241D01*
X022643Y011241D02*
X022643Y011419D01*
X023217Y011419D01*
X023217Y011241D01*
X023217Y011417D02*
X022643Y011417D01*
X022643Y011741D02*
X023217Y011741D01*
X022643Y011741D02*
X022643Y011919D01*
X023217Y011919D01*
X023217Y011741D01*
X023217Y011917D02*
X022643Y011917D01*
X022643Y012241D02*
X023217Y012241D01*
X022643Y012241D02*
X022643Y012419D01*
X023217Y012419D01*
X023217Y012241D01*
X023217Y012417D02*
X022643Y012417D01*
X022643Y012741D02*
X023217Y012741D01*
X022643Y012741D02*
X022643Y012919D01*
X023217Y012919D01*
X023217Y012741D01*
X023217Y012917D02*
X022643Y012917D01*
X017717Y012741D02*
X017143Y012741D01*
X017143Y012919D01*
X017717Y012919D01*
X017717Y012741D01*
X017717Y012917D02*
X017143Y012917D01*
X017143Y012241D02*
X017717Y012241D01*
X017143Y012241D02*
X017143Y012419D01*
X017717Y012419D01*
X017717Y012241D01*
X017717Y012417D02*
X017143Y012417D01*
X017143Y011741D02*
X017717Y011741D01*
X017143Y011741D02*
X017143Y011919D01*
X017717Y011919D01*
X017717Y011741D01*
X017717Y011917D02*
X017143Y011917D01*
X017143Y011241D02*
X017717Y011241D01*
X017143Y011241D02*
X017143Y011419D01*
X017717Y011419D01*
X017717Y011241D01*
X017717Y011417D02*
X017143Y011417D01*
X017143Y010741D02*
X017717Y010741D01*
X017143Y010741D02*
X017143Y010919D01*
X017717Y010919D01*
X017717Y010741D01*
X017717Y010917D02*
X017143Y010917D01*
X017143Y010241D02*
X017717Y010241D01*
X017143Y010241D02*
X017143Y010419D01*
X017717Y010419D01*
X017717Y010241D01*
X017717Y010417D02*
X017143Y010417D01*
X017143Y009741D02*
X017717Y009741D01*
X017143Y009741D02*
X017143Y009919D01*
X017717Y009919D01*
X017717Y009741D01*
X017717Y009917D02*
X017143Y009917D01*
X017143Y009241D02*
X017717Y009241D01*
X017143Y009241D02*
X017143Y009419D01*
X017717Y009419D01*
X017717Y009241D01*
X017717Y009417D02*
X017143Y009417D01*
X017143Y007048D02*
X017717Y007048D01*
X017143Y007048D02*
X017143Y007226D01*
X017717Y007226D01*
X017717Y007048D01*
X017717Y007224D02*
X017143Y007224D01*
X017143Y006548D02*
X017717Y006548D01*
X017143Y006548D02*
X017143Y006726D01*
X017717Y006726D01*
X017717Y006548D01*
X017717Y006724D02*
X017143Y006724D01*
X017143Y006048D02*
X017717Y006048D01*
X017143Y006048D02*
X017143Y006226D01*
X017717Y006226D01*
X017717Y006048D01*
X017717Y006224D02*
X017143Y006224D01*
X014217Y006048D02*
X013643Y006048D01*
X013643Y006226D01*
X014217Y006226D01*
X014217Y006048D01*
X014217Y006224D02*
X013643Y006224D01*
X013643Y006548D02*
X014217Y006548D01*
X013643Y006548D02*
X013643Y006726D01*
X014217Y006726D01*
X014217Y006548D01*
X014217Y006724D02*
X013643Y006724D01*
X013643Y007048D02*
X014217Y007048D01*
X013643Y007048D02*
X013643Y007226D01*
X014217Y007226D01*
X014217Y007048D01*
X014217Y007224D02*
X013643Y007224D01*
X013643Y009241D02*
X014217Y009241D01*
X013643Y009241D02*
X013643Y009419D01*
X014217Y009419D01*
X014217Y009241D01*
X014217Y009417D02*
X013643Y009417D01*
X013643Y009741D02*
X014217Y009741D01*
X013643Y009741D02*
X013643Y009919D01*
X014217Y009919D01*
X014217Y009741D01*
X014217Y009917D02*
X013643Y009917D01*
X013643Y010241D02*
X014217Y010241D01*
X013643Y010241D02*
X013643Y010419D01*
X014217Y010419D01*
X014217Y010241D01*
X014217Y010417D02*
X013643Y010417D01*
X013643Y010741D02*
X014217Y010741D01*
X013643Y010741D02*
X013643Y010919D01*
X014217Y010919D01*
X014217Y010741D01*
X014217Y010917D02*
X013643Y010917D01*
X013643Y011241D02*
X014217Y011241D01*
X013643Y011241D02*
X013643Y011419D01*
X014217Y011419D01*
X014217Y011241D01*
X014217Y011417D02*
X013643Y011417D01*
X013643Y011741D02*
X014217Y011741D01*
X013643Y011741D02*
X013643Y011919D01*
X014217Y011919D01*
X014217Y011741D01*
X014217Y011917D02*
X013643Y011917D01*
X013643Y012241D02*
X014217Y012241D01*
X013643Y012241D02*
X013643Y012419D01*
X014217Y012419D01*
X014217Y012241D01*
X014217Y012417D02*
X013643Y012417D01*
X013643Y012741D02*
X014217Y012741D01*
X013643Y012741D02*
X013643Y012919D01*
X014217Y012919D01*
X014217Y012741D01*
X014217Y012917D02*
X013643Y012917D01*
X008717Y012741D02*
X008143Y012741D01*
X008143Y012919D01*
X008717Y012919D01*
X008717Y012741D01*
X008717Y012917D02*
X008143Y012917D01*
X008143Y012241D02*
X008717Y012241D01*
X008143Y012241D02*
X008143Y012419D01*
X008717Y012419D01*
X008717Y012241D01*
X008717Y012417D02*
X008143Y012417D01*
X008143Y011741D02*
X008717Y011741D01*
X008143Y011741D02*
X008143Y011919D01*
X008717Y011919D01*
X008717Y011741D01*
X008717Y011917D02*
X008143Y011917D01*
X008143Y011241D02*
X008717Y011241D01*
X008143Y011241D02*
X008143Y011419D01*
X008717Y011419D01*
X008717Y011241D01*
X008717Y011417D02*
X008143Y011417D01*
X008143Y010741D02*
X008717Y010741D01*
X008143Y010741D02*
X008143Y010919D01*
X008717Y010919D01*
X008717Y010741D01*
X008717Y010917D02*
X008143Y010917D01*
X008143Y010241D02*
X008717Y010241D01*
X008143Y010241D02*
X008143Y010419D01*
X008717Y010419D01*
X008717Y010241D01*
X008717Y010417D02*
X008143Y010417D01*
X008143Y009741D02*
X008717Y009741D01*
X008143Y009741D02*
X008143Y009919D01*
X008717Y009919D01*
X008717Y009741D01*
X008717Y009917D02*
X008143Y009917D01*
X008143Y009241D02*
X008717Y009241D01*
X008143Y009241D02*
X008143Y009419D01*
X008717Y009419D01*
X008717Y009241D01*
X008717Y009417D02*
X008143Y009417D01*
X008143Y007048D02*
X008717Y007048D01*
X008143Y007048D02*
X008143Y007226D01*
X008717Y007226D01*
X008717Y007048D01*
X008717Y007224D02*
X008143Y007224D01*
X008143Y006548D02*
X008717Y006548D01*
X008143Y006548D02*
X008143Y006726D01*
X008717Y006726D01*
X008717Y006548D01*
X008717Y006724D02*
X008143Y006724D01*
X008143Y006048D02*
X008717Y006048D01*
X008143Y006048D02*
X008143Y006226D01*
X008717Y006226D01*
X008717Y006048D01*
X008717Y006224D02*
X008143Y006224D01*
M02*
